HIERARCHY
ROOT Hips
{
	OFFSET	0.00	0.00	0.00
	CHANNELS 6 Xposition Yposition Zposition Zrotation Xrotation Yrotation
	JOINT Spine
	{
		OFFSET	 0.00	0.01	 0.00
		CHANNELS 3 Zrotation Xrotation Yrotation
		JOINT Spine1
		{
			OFFSET	 0.00	 2.45913012437421	 0.00
			CHANNELS 3 Zrotation Xrotation Yrotation
            JOINT Neck
            {
                OFFSET	 0.00	 2.48462964506057	 0.00
                CHANNELS 3 Zrotation Xrotation Yrotation
                JOINT Head
                {
                    OFFSET	 0.00	 0.927524780924562	 0.00
                    CHANNELS 3 Zrotation Xrotation Yrotation
                    End Site 
                    {
                        OFFSET	 0.00	 1.14999962169752	 0.00
                    }
                }
            }
			JOINT LeftShoulder
			{
				OFFSET	 0.00	 2.48462964506057	 0.00
				CHANNELS 3 Zrotation Xrotation Yrotation
				JOINT LeftUpArm
				{
					OFFSET	 0.00	 1.24881979654096	 0.00
					CHANNELS 3 Zrotation Xrotation Yrotation
					JOINT LeftForeArm
					{
						OFFSET	 0.00	2.59758046908119	 0.00
						CHANNELS 3 Zrotation Xrotation Yrotation
						JOINT LeftHand
						{
							OFFSET	 0.00	2.45542024364365	 0.00
							CHANNELS 3 Zrotation Xrotation Yrotation
							JOINT LeftHandThumb 
							{
								OFFSET	 0.00	0.00	 0.00
								CHANNELS 3 Zrotation Xrotation Yrotation
								End Site
								{
									OFFSET	 0.00	0.00	1.00000003353624
								}
							}
							JOINT L_Wrist_End 
							{
								OFFSET	 0.00	0.99999967115358	 0.00
								CHANNELS 3 Zrotation Xrotation Yrotation
								End Site 
								{
									OFFSET	 0.00	 0.00	 0.00
								}
							}
						}
					}
				}
			}
			JOINT RightShoulder
			{
				OFFSET	 0.00	 2.48462964506057	 0.00
				CHANNELS 3 Zrotation Xrotation Yrotation
				JOINT RightUpArm
				{
					OFFSET	 0.00	 1.24881979654096	 0.00
					CHANNELS 3 Zrotation Xrotation Yrotation
					JOINT RightForeArm
					{
						OFFSET	 0.00	2.59758046908119	 0.00
						CHANNELS 3 Zrotation Xrotation Yrotation
						JOINT RightHand
						{
							OFFSET	 0.00	2.45542024364365	 0.00
							CHANNELS 3 Zrotation Xrotation Yrotation
							JOINT RightHandThumb 
							{
								OFFSET	 0.00	0.00	 0.00
								CHANNELS 3 Zrotation Xrotation Yrotation
								End Site
								{
									OFFSET	 0.00	0.00	1.00000003353624
								}
							}
							JOINT R_Wrist_End 
							{
								OFFSET	 0.00	0.99999967115358	 0.00
								CHANNELS 3 Zrotation Xrotation Yrotation
								End Site 
								{
									OFFSET	 0.00	 0.00	 0.00
								}
							}
						}
					}
				}
			}
		}
	}
	JOINT LeftUpLeg
	{
		OFFSET	 1.2719394002717	 0.00	 0.00
		CHANNELS 3 Zrotation Xrotation Yrotation
		JOINT LeftLowLeg
		{
			OFFSET	 0.00	-4.3429100912261	 0.00
			CHANNELS 3 Zrotation Xrotation Yrotation
			JOINT LeftFoot
			{
				OFFSET	 0.00	-4.48767017425826	 0.00
				CHANNELS 3 Zrotation Xrotation Yrotation
				JOINT LeftToeBase
                {
                    OFFSET	 0.00	0.00	 1.51507020887566
                    CHANNELS 3 Zrotation Xrotation Yrotation
                    End Site 
                    {
                        OFFSET	 0.00	0.00	 0.75000010571191
                    }
                }
			}
		}
	}
	JOINT RightUpLeg
	{
		OFFSET	 -1.2719393604653	 0.00	 0.00
		CHANNELS 3 Zrotation Xrotation Yrotation
		JOINT RightLowLeg
		{
			OFFSET	 0.00	-4.3429100912261	 0.00
			CHANNELS 3 Zrotation Xrotation Yrotation
			JOINT RightFoot
			{
				OFFSET	 0.00	-4.48767017425826	 0.00
				CHANNELS 3 Zrotation Xrotation Yrotation
				JOINT RightToeBase
                {
                    OFFSET	 0.00	0.00	 1.51507020887566
                    CHANNELS 3 Zrotation Xrotation Yrotation
                    End Site 
                    {
                        OFFSET	 0.00	0.00	 0.749999965609858
                    }
                }   
			}
		}
	}
}
MOTION 
Frames:	16 
Frame Time: 0.02 
 -0.559625015258789 4.707489929199219 9.344849853515624 -164.229 73.759 160.827 4.35385 -27.2805 0.502883 -2.35144 13.7486 -1.95961 35.6134 27.8317 -23.038 -47.3827 -64.6544 -45.1298 -117.938995 -0.266041 9.78783 -40.9312 0.990261 23.0096 0.0 9.49051 0.0 4.87985 -14.9469 29.1904 0.0 0.0 0.0 0.0 0.0 0.0 120.2348 -4.37975 -5.02747 49.4318 -3.45078 -372.008 0.0 6.02346 0.0 1.25992 -7.3005 -10.9515 0.0 0.0 0.0 0.0 0.0 0.0 0.368986 -10.6669 -21.5841 0.0 4.35196 0.0 0.426127 -4.7966995 22.5399 0.0 -10.2425995 0.0 9.7598 -10.7127 395.582 0.0 5.67972 0.0 3.67177 2.6970997 -26.4118 0.0 -17.85876 0.0 
  -0.5614749908447265 4.709320068359375 9.344190063476562 -164.681 73.7215 160.868 4.39064 -27.2266 0.598107 -2.28772 13.5704 -1.88216 35.2798 28.161 -22.4972 -47.4856 -64.6283 -45.0939 -117.7617 -0.444495 9.68704 -41.1069 -0.00319738 22.4154 0.0 9.22888 0.0 4.03817 -15.2044 29.2511 0.0 0.0 0.0 0.0 0.0 0.0 120.201996 -4.49442 -5.0823 49.6369 -3.64506 -371.871 0.0 5.84924 0.0 1.63139 -7.29286 -11.2745 0.0 0.0 0.0 0.0 0.0 0.0 0.356337 -10.6662 -21.1839 0.0 4.29953 0.0 0.473581 -4.8022003 22.5659 0.0 -10.25202 0.0 9.75775 -10.8341 395.811 0.0 5.76317 0.0 3.73267 2.6695995 -26.1918 0.0 -17.87186 0.0 
  -0.5624860000610351 4.708789978027344 9.344180297851562 -164.813 73.7329 160.772 4.43581 -27.2116 0.611422 -2.21697 13.5684 -1.90416 34.909 28.3987 -21.9751 -47.5759 -64.6225 -45.0238 -117.605896 -0.703192 9.50997 -41.3114 -0.683726 21.5863 0.0 8.88477 0.0 3.25989 -15.2984 29.3576 0.0 0.0 0.0 0.0 0.0 0.0 120.2737 -4.21934 -4.62681 49.653 -4.50641 -371.524 0.0 5.97884 0.0 2.06914 -7.22096 -11.5892 0.0 0.0 0.0 0.0 0.0 0.0 0.37202 -10.6163 -20.9622 0.0 4.27119 0.0 0.483289 -4.8218 22.5746 0.0 -10.24508 0.0 9.75964 -10.831 395.869 0.0 5.757 0.0 3.73097 2.7117004 -26.0318 0.0 -17.878849 0.0 
  -0.5629899978637696 4.708580017089844 9.344550170898437 -164.808 73.7464 160.618 4.49776 -27.2543 0.62057 -2.15308 13.6061 -1.94482 34.6319 28.7393 -21.5333 -47.875 -64.5841 -45.1712 -117.4813 -0.820564 9.4082 -41.524 -1.2096 20.5641 0.0 8.53771 0.0 2.54984 -15.344 29.0282 0.0 0.0 0.0 0.0 0.0 0.0 120.2623 -4.39216 -4.75944 49.6467 -4.19937 -371.689 0.0 5.86366 0.0 2.51064 -7.23593 -11.6283 0.0 0.0 0.0 0.0 0.0 0.0 0.40865 -10.5735 -20.8094 0.0 4.25881 0.0 0.444127 -4.860901 22.5315 0.0 -10.220631 0.0 9.77562 -10.8157 395.867 0.0 5.74733 0.0 3.74578 2.7627 -25.8726 0.0 -17.88985 0.0 
  -0.5633119964599609 4.708630065917969 9.344829711914063 -164.767 73.7522 160.498 4.54124 -27.3213 0.601906 -2.07597 13.5986 -1.99776 34.3308 29.2651 -21.0133 -48.2941 -64.4667 -45.4746 -117.4061 -0.855036 9.36111 -41.7338 -1.56436 19.5284 0.0 8.19936 0.0 2.0557 -15.425 29.0228 0.0 0.0 0.0 0.0 0.0 0.0 120.2599 -4.64598 -5.04856 49.5594 -3.60069 -371.652 0.0 5.7995 0.0 2.75475 -7.27277 -11.6606 0.0 0.0 0.0 0.0 0.0 0.0 0.441372 -10.548 -20.737 0.0 4.2494 0.0 0.414253 -4.8885994 22.5147 0.0 -10.21254 0.0 9.78872 -10.8033 395.839 0.0 5.7319 0.0 3.76325 2.8002005 -25.7519 0.0 -17.90345 0.0 
  -0.5635300064086914 4.709179992675781 9.345120239257813 -164.711 73.7715 160.43 4.54489 -27.3988 0.545759 -1.98119 13.6783 -2.04337 34.0619 29.594 -20.6215 -48.4411 -64.3327 -45.4334 -117.4026 -0.875858 9.26948 -41.8854 -1.68358 18.6687 0.0 7.94182 0.0 1.76537 -15.6417 28.6538 0.0 0.0 0.0 0.0 0.0 0.0 120.2848 -4.63747 -4.9817 49.3845 -3.42464 -371.535 0.0 5.92618 0.0 2.70809 -7.25667 -11.7308 0.0 0.0 0.0 0.0 0.0 0.0 0.460384 -10.5217 -20.7478 0.0 4.23996 0.0 0.370071 -4.8957996 22.5051 0.0 -10.24014 0.0 9.78823 -10.7759 395.747 0.0 5.70793 0.0 3.77108 2.8197002 -25.6483 0.0 -17.89444 0.0 
  -0.563672981262207 4.710379943847657 9.34531982421875 -164.567 73.809 160.34 4.55796 -27.4727 0.490869 -1.91246 13.7801 -2.10312 33.8266 29.8588 -20.3312 -48.3691 -64.0905 -45.019 -117.4323 -0.845124 9.2606 -42.0142 -1.52717 17.9026 0.0 7.69184 0.0 1.69558 -15.7737 28.5212 0.0 0.0 0.0 0.0 0.0 0.0 120.3139 -4.60334 -4.93968 49.1736 -3.1129 -371.478 0.0 6.07347 0.0 2.30064 -7.23268 -11.3431 0.0 0.0 0.0 0.0 0.0 0.0 0.483278 -10.4924 -20.764 0.0 4.24487 0.0 0.300579 -4.9263 22.432 0.0 -10.2135105 0.0 9.79832 -10.7302 395.66 0.0 5.69132 0.0 3.76632 2.8435001 -25.6286 0.0 -17.88869 0.0 
  -0.5634619903564453 4.712780151367188 9.345700073242188 -164.398 73.8816 160.223 4.58964 -27.5238 0.471729 -1.87284 13.9065 -2.1456 33.5881 30.1949 -19.9947 -48.2423 -63.8239 -44.6586 -117.497 -0.773 9.2747 -42.0995 -1.15701 17.4204 0.0 7.55516 0.0 1.71955 -15.8047 28.3838 0.0 0.0 0.0 0.0 0.0 0.0 120.3648 -4.54773 -4.91121 48.8524 -2.70603 -371.214 0.0 6.4476 0.0 2.06294 -7.57968 -10.7313 0.0 0.0 0.0 0.0 0.0 0.0 0.502148 -10.431 -20.7057 0.0 4.24107 0.0 0.262123 -4.922701 22.3081 0.0 -10.20167 0.0 9.81237 -10.6715 395.639 0.0 5.7106 0.0 3.78846 2.8508997 -25.6513 0.0 -17.90081 0.0 
  -0.5616939926147461 4.719949951171875 9.345809936523438 -164.337 73.9325 160.103 4.73697 -27.505 0.61457 -1.93102 13.9397 -2.14601 33.3031 30.7329 -19.4884 -48.168 -63.5346 -44.415 -117.6094 -0.638259 9.35312 -42.1185 -0.571841 17.0817 0.0 7.49453 0.0 1.8242 -15.7382 28.4686 0.0 0.0 0.0 0.0 0.0 0.0 120.4236 -4.47271 -4.85019 48.5523 -2.26662 -371.32 0.0 6.72411 0.0 1.24838 -7.27681 -10.2917 0.0 0.0 0.0 0.0 0.0 0.0 0.507278 -10.4177 -20.553 0.0 4.2453 0.0 0.235415 -4.9160995 22.2092 0.0 -10.199659 0.0 9.84929 -10.7252 395.841 0.0 5.86228 0.0 3.95222 2.7601004 -25.6772 0.0 -17.915451 0.0 
  -0.5607809829711914 4.7244699096679685 9.34614990234375 -164.149 74.0226 160.009 4.84344 -27.549 0.690624 -2.02402 14.0778 -2.18088 33.1946 31.1317 -19.2535 -47.8885 -63.1843 -43.9066 -117.711395 -0.462942 9.42761 -42.1195 0.193959 17.0365 0.0 7.54268 0.0 2.08671 -15.5914 28.8309 0.0 0.0 0.0 0.0 0.0 0.0 120.4987 -4.38026 -4.81386 48.2036 -1.73998 -371.255 0.0 7.03492 0.0 0.632161 -7.13589 -9.13994 0.0 0.0 0.0 0.0 0.0 0.0 0.508259 -10.3573 -20.5455 0.0 4.24007 0.0 0.208176 -4.8903008 22.1102 0.0 -10.18821 0.0 9.85865 -10.6719 395.821 0.0 5.90579 0.0 3.97315 2.7479 -25.7407 0.0 -17.91427 0.0 
  -0.5595690155029297 4.730429992675782 9.346300048828125 -163.936 74.1272 159.905 4.91986 -27.5571 0.729279 -2.07334 14.2459 -2.22109 33.0999 31.4809 -19.0575 -47.5541 -62.8152 -43.242 -117.867905 -0.351843 9.4733 -42.0488 1.12592 17.4033 0.0 7.88588 0.0 2.2969 -15.4022 29.2109 0.0 0.0 0.0 0.0 0.0 0.0 120.5061 -4.01662 -4.46264 47.8897 -1.67275 -371.239 0.0 7.52014 0.0 -0.201034 -6.91103 -8.20062 0.0 0.0 0.0 0.0 0.0 0.0 0.50374 -10.2981 -20.5298 0.0 4.2506 0.0 0.192102 -4.8659 21.9971 0.0 -10.16455 0.0 9.8655 -10.6134 395.782 0.0 5.95357 0.0 4.02365 2.7164001 -25.7885 0.0 -17.90421 0.0 
  -0.5576470184326172 4.731690063476562 9.347540283203125 -163.364 74.2037 159.793 5.00404 -27.759 0.647736 -2.16036 14.5935 -2.40634 33.0251 31.9037 -18.8798 -47.3272 -62.4161 -42.7437 -118.042496 -0.135529 9.63789 -41.9179 2.20957 17.7506 0.0 8.4125 0.0 2.55991 -15.205 29.2503 0.0 0.0 0.0 0.0 0.0 0.0 120.478 -3.76339 -4.338 47.6206 -1.28211 -371.122 0.0 7.92338 0.0 -1.15822 -6.46143 -7.22167 0.0 0.0 0.0 0.0 0.0 0.0 0.521634 -10.2929 -20.8731 0.0 4.33078 0.0 0.162582 -4.8372993 21.8907 0.0 -10.13839 0.0 9.85877 -10.4488 395.31 0.0 5.81817 0.0 3.91736 2.8148003 -25.8726 0.0 -17.90053 0.0 
  -0.5558660125732422 4.739100036621093 9.3477001953125 -163.293 74.2324 159.749 5.16233 -27.8712 0.805962 -2.24103 14.763 -2.38515 32.9341 32.4585 -18.6429 -47.1896 -61.9781 -42.3924 -118.319 0.102125 9.86022 -41.6467 3.30925 18.2986 0.0 9.3042 0.0 2.86908 -14.9285 29.1056 0.0 0.0 0.0 0.0 0.0 0.0 120.4637 -3.67176 -4.34312 47.2376 -0.60254 -371.229 0.0 8.46433 0.0 -2.13993 -6.65936 -6.29046 0.0 0.0 0.0 0.0 0.0 0.0 0.513171 -10.3276 -20.8021 0.0 4.36073 0.0 0.151747 -4.822901 21.7951 0.0 -10.13306 0.0 9.86777 -10.4875 395.326 0.0 5.87415 0.0 3.96424 2.7985 -25.879 0.0 -17.89032 0.0 
  -0.5529729843139648 4.742929992675781 9.34843994140625 -163.037 74.3092 159.539 5.47077 -28.0189 1.10726 -2.45636 15.0457 -2.37518 32.9539 32.9494 -18.5621 -46.9587 -61.5067 -41.906 -118.547195 0.380219 10.1236 -41.3014 4.47034 18.979 0.0 10.4847 0.0 3.19894 -14.4903 28.8944 0.0 0.0 0.0 0.0 0.0 0.0 120.440796 -3.55749 -4.22798 46.9097 -0.0619392 -371.409 0.0 8.88367 0.0 -3.21281 -6.20383 -4.66837 0.0 0.0 0.0 0.0 0.0 0.0 0.527671 -10.2586 -20.7695 0.0 4.34834 0.0 0.155825 -4.7933006 21.7437 0.0 -10.131741 0.0 9.88616 -10.4402 395.276 0.0 5.92203 0.0 4.0336 2.7938004 -25.8374 0.0 -17.89426 0.0 
  -0.5460169982910156 4.759110107421875 9.348159790039062 -163.045 74.5295 159.249 5.91104 -27.7141 1.69781 -2.71234 15.0458 -2.22345 32.9336 33.5137 -18.412 -46.9461 -61.0673 -41.5937 -118.8975 0.67192 10.4371 -40.7616 5.66284 19.8145 0.0 12.0413 0.0 3.63346 -13.9419 28.3633 0.0 0.0 0.0 0.0 0.0 0.0 120.4501 -3.51362 -4.25263 46.4856 0.647569 -370.729 0.0 9.64878 0.0 -3.92084 -7.12972 -3.90592 0.0 0.0 0.0 0.0 0.0 0.0 0.443858 -10.1341 -20.4968 0.0 4.40243 0.0 0.239254 -4.7479 21.8209 0.0 -10.129129 0.0 9.8631 -10.4337 395.631 0.0 6.14275 0.0 4.36307 2.6323004 -25.7111 0.0 -17.91397 0.0 
  -0.5410869979858398 4.76447998046875 9.349409790039063 -162.505 74.6992 158.903 6.21447 -27.7165 1.92656 -2.80299 15.347 -2.28355 32.88 33.9571 -18.3418 -46.9077 -60.5803 -41.2 -119.1697 0.890188 10.6185 -40.3049 6.84922 20.6966 0.0 13.8586 0.0 4.35173 -13.2035 27.6731 0.0 0.0 0.0 0.0 0.0 0.0 120.3486 -3.54473 -4.44364 46.1105 1.60309 -370.841 0.0 10.1133 0.0 -5.00152 -7.22526 -3.04678 0.0 0.0 0.0 0.0 0.0 0.0 0.422085 -10.0723 -20.8299 0.0 4.58575 0.0 0.241626 -4.7637005 21.9479 0.0 -10.11772 0.0 9.85806 -10.2571 395.314 0.0 6.11173 0.0 4.35121 2.7006998 -25.6329 0.0 -17.91733 0.0 
